<?xml version="1.0" encoding="UTF-8"?>
<svg version="1.1" xmlns="http://www.w3.org/2000/svg" width="1024" height="1024">
<path d="M0 0 C0.66 0 1.32 0 2 0 C1.67 1.32 1.34 2.64 1 4 C0.34 4 -0.32 4 -1 4 C-1 4.66 -1 5.32 -1 6 C-2.328125 7.26953125 -2.328125 7.26953125 -4.25 8.8125 C-7.85725226 11.88116946 -11.08392844 15.17482231 -14.25 18.6875 C-22.10779809 27.37229699 -30.47163503 35.55947779 -38.78686523 43.80273438 C-41.07692078 45.95135557 -41.07692078 45.95135557 -42.84970093 48.60482788 C-47.77641544 52.35060851 -52.59542735 51.6329549 -58.61791992 51.52001953 C-59.89981201 51.51593079 -61.1817041 51.51184204 -62.50244141 51.50762939 C-65.2866373 51.49861481 -68.0700912 51.473891 -70.8540554 51.4369545 C-75.26363135 51.37874549 -79.67293984 51.3567973 -84.08283997 51.33981323 C-91.86020338 51.3052621 -99.63708837 51.24027797 -107.41418457 51.16845703 C-119.1029877 51.06069238 -130.79191212 50.9759432 -142.48108369 50.92108619 C-146.8565377 50.89940135 -151.23146002 50.86161771 -155.60666788 50.81071115 C-157.67912555 50.78876517 -159.75149831 50.77378855 -161.82403564 50.76177979 C-164.3397821 50.74697874 -166.85550051 50.72136279 -169.37098694 50.68228149 C-179.96707304 50.65308203 -189.24065791 52.29441779 -197 60 C-201.25013324 65.69148277 -202.56596686 70.98201094 -202 78 C-200.07117468 85.64158823 -196.71423963 90.82629819 -190 95 C-180.52724591 98.80885119 -170.39158907 98.41452467 -160.36925888 98.38012505 C-157.43330136 98.3709089 -154.49796817 98.38135583 -151.56204224 98.39674377 C-143.22382398 98.43656421 -134.88566095 98.43804548 -126.54736328 98.43579102 C-121.42406084 98.43573973 -116.30109954 98.45498845 -111.17789078 98.48512459 C-108.30072552 98.49587502 -105.42423155 98.48386834 -102.54708862 98.47129822 C-77.53824143 98.51749128 -64.39944778 113.44406595 -47.671875 130.16015625 C-46.54566216 131.28314507 -45.419379 132.40606337 -44.29302979 133.52891541 C-41.96199197 135.85403592 -39.63295721 138.1811411 -37.30517578 140.50952148 C-34.31759916 143.49720108 -31.32311766 146.47786056 -28.32697678 149.45694828 C-26.01255549 151.76029771 -23.70264606 154.06813025 -21.39402008 156.37728691 C-20.29037925 157.47974689 -19.18511469 158.58058386 -18.07820892 159.6797657 C-16.54444936 161.20379297 -15.01707725 162.73394494 -13.49121094 164.26586914 C-12.62139587 165.13425919 -11.75158081 166.00264923 -10.85540771 166.89735413 C-9 169 -9 169 -9 171 C-8.34 171 -7.68 171 -7 171 C-0.35845535 180.2981625 -2.02082876 195.48887946 -3.26806641 206.33007812 C-5.90402022 222.06377697 -16.06248884 236.34728138 -28.75 245.75 C-43.39697461 255.36349417 -59.13028331 259.18948277 -76.44728088 259.12025452 C-77.64712936 259.12153615 -77.64712936 259.12153615 -78.87121719 259.12284368 C-81.52427575 259.12447744 -84.17726963 259.11901193 -86.83032227 259.11352539 C-88.74295551 259.11324304 -90.65558886 259.11340219 -92.56822205 259.1139679 C-97.7410874 259.11425399 -102.91392942 259.1083876 -108.08678937 259.10139394 C-113.49999195 259.09512915 -118.91319511 259.09455413 -124.32640076 259.09336853 C-134.56840392 259.09026442 -144.81039636 259.08206345 -155.05239481 259.07201904 C-166.71622538 259.06082931 -178.38005647 259.05534025 -190.04389107 259.05032361 C-214.02926665 259.03988006 -238.01463272 259.02229846 -262 259 C-260.28974534 255.33565049 -258.24002076 253.0654411 -255.3125 250.25 C-251.62362733 246.69307768 -248.22148842 242.99800297 -244.87182617 239.12792969 C-241.02603437 234.75595611 -236.97257207 230.57460166 -232.9609375 226.35546875 C-232.29320312 225.65035156 -231.62546875 224.94523438 -230.9375 224.21875 C-230.34839844 223.59935547 -229.75929688 222.97996094 -229.15234375 222.34179688 C-227.02454238 220.16433666 -227.02454238 220.16433666 -225.76233482 218.05479145 C-223.25548145 214.47862119 -221.33698853 212.32897093 -217.00799942 211.2638073 C-213.21641843 210.99574321 -209.46665385 210.97803874 -205.67041016 211.04760742 C-204.21600811 211.04490988 -202.761609 211.0386504 -201.30723572 211.02911377 C-198.18454366 211.01628391 -195.06333523 211.02856938 -191.94078445 211.06065941 C-186.99755642 211.11138493 -182.05532342 211.10628256 -177.11190796 211.09407043 C-169.28859469 211.08141971 -161.46593397 211.10680754 -153.64273679 211.14809066 C-139.64458158 211.22096015 -125.64633691 211.23393656 -111.64801443 211.22593576 C-106.74046019 211.22469448 -101.83339931 211.24151866 -96.92595315 211.27358377 C-93.86520917 211.29112221 -90.80451988 211.2965985 -87.74373055 211.29937744 C-86.33165448 211.30333617 -84.91958127 211.31246077 -83.5075779 211.32732582 C-70.3761307 211.47174007 -70.3761307 211.47174007 -59.0625 205.5625 C-55.58996123 201.24813365 -54.41797733 197.93961423 -54.5625 192.4296875 C-56.01255302 184.37671446 -63.31917004 178.3626092 -69 173 C-70.66666667 171.33333333 -72.33333333 169.66666667 -74 168 C-74.76957031 167.23300781 -75.53914062 166.46601562 -76.33203125 165.67578125 C-78.06521771 163.93751957 -79.78850879 162.1893144 -81.5 160.4296875 C-82.325 159.58664062 -83.15 158.74359375 -84 157.875 C-84.825 157.02679688 -85.65 156.17859375 -86.5 155.3046875 C-92.76599768 149.52822089 -98.01917577 148.85327484 -106.27832031 148.84228516 C-107.52811676 148.83466408 -107.52811676 148.83466408 -108.80316162 148.82688904 C-110.61246951 148.81619556 -112.42179054 148.80757137 -114.23111725 148.80076981 C-117.10912333 148.78893503 -119.98698242 148.76946469 -122.8649292 148.74765015 C-131.04824809 148.68622945 -139.23155512 148.63226757 -147.41503906 148.59863281 C-152.42539851 148.57748946 -157.43549443 148.54202176 -162.4457016 148.49787521 C-164.34154878 148.48385727 -166.23744264 148.47502548 -168.13333893 148.47182083 C-193.04858134 148.42529665 -215.71451834 144.25495497 -234 126 C-234.69996094 125.31164062 -235.39992188 124.62328125 -236.12109375 123.9140625 C-248.97831659 110.43026935 -255.46981889 92.60927891 -255.21484375 73.99609375 C-253.7657453 53.78775714 -245.65646966 36.12975278 -231 22 C-212.79958519 6.25560708 -193.24688871 1.37493572 -169.84130859 1.45410156 C-168.09647716 1.44533945 -166.35165373 1.43484465 -164.60684204 1.42277527 C-159.92564439 1.39520217 -155.24471257 1.39150435 -150.56344557 1.39249516 C-145.64198016 1.38933774 -140.72062954 1.36365702 -135.79922485 1.34051514 C-126.49727382 1.30013326 -117.1953925 1.27965955 -107.89336741 1.26654124 C-97.32159068 1.25064541 -86.74993298 1.21218637 -76.17822528 1.17194796 C-59.74042517 1.10981571 -43.30263381 1.05988808 -26.86474609 1.02832031 C-26.04427544 1.0267436 -25.22380478 1.02516689 -24.37847137 1.0235424 C-19.5856491 1.0145275 -14.79282722 1.00592695 -10 1 C-8.75249781 0.97914715 -7.50499561 0.9582943 -6.21969032 0.93680954 C-3 1 -3 1 0 2 C0 1.34 0 0.68 0 0 Z " fill="#765CFE" transform="translate(517,352)"/>
<path d="M0 0 C1.07109173 20.98074919 1.14948212 41.9290347 1.1343255 62.93125653 C1.13175357 67.62319317 1.13415168 72.31512808 1.13571167 77.00706482 C1.137515 84.85082356 1.13517111 92.69457279 1.13037109 100.53833008 C1.12488429 109.60927884 1.12673014 118.68020527 1.1321975 127.75115353 C1.13672481 135.57668358 1.13738249 143.4022069 1.13475883 151.22773784 C1.13320002 155.88704893 1.13299244 160.54634946 1.13629532 165.20565987 C1.13917003 169.56187566 1.13720588 173.91806222 1.13140106 178.27427483 C1.13007334 179.87514573 1.13046778 181.47601908 1.13266373 183.07688904 C1.13537355 185.25157497 1.13199681 187.42616557 1.12698364 189.60084534 C1.12660662 190.81979272 1.12622959 192.0387401 1.12584114 193.29462528 C1 196 1 196 0 197 C-1.41225046 197.0928726 -2.82908934 197.11746772 -4.24438477 197.11352539 C-5.14524307 197.11344986 -6.04610138 197.11337433 -6.97425842 197.11329651 C-7.95341721 197.10813522 -8.93257599 197.10297394 -9.94140625 197.09765625 C-10.93881332 197.0962413 -11.9362204 197.09482635 -12.96385193 197.09336853 C-16.16343124 197.08775114 -19.36294169 197.07519571 -22.5625 197.0625 C-24.72591045 197.05748724 -26.88932199 197.05292395 -29.05273438 197.04882812 C-34.36851325 197.03777607 -39.68425171 197.02102104 -45 197 C-46.06331506 171.27175213 -45.97917198 145.61491982 -45.60510254 119.87194824 C-45.53283833 114.78839914 -45.46898684 109.70474388 -45.40429688 104.62109375 C-45.27747692 94.74727919 -45.1417985 84.87361007 -45 75 C-48.60882355 77.10284663 -51.44497999 79.1993027 -54.375 82.1875 C-55.08398438 82.90292969 -55.79296875 83.61835938 -56.5234375 84.35546875 C-58.51092973 86.47775934 -60.43300789 88.62677053 -62.33984375 90.8203125 C-65.86094183 94.86881848 -69.50230881 98.7885687 -73.1875 102.6875 C-77.96907565 107.7634271 -82.7243678 112.86047781 -87.4375 118 C-91.26465244 122.16969455 -95.18379086 126.21868773 -99.21875 130.1875 C-101.00162104 132.00164948 -102.65999718 133.87938349 -104.3125 135.8125 C-107.66340406 139.71549809 -111.28476894 143.31473994 -114.94360352 146.92407227 C-118.26016071 150.21317736 -121.35976378 153.62143757 -124.390625 157.171875 C-126.02586434 159.02937988 -127.73481793 160.76606009 -129.5 162.5 C-133.92132235 166.85223918 -137.92987297 171.54356124 -141.92578125 176.28515625 C-142.54839844 177.01605469 -143.17101562 177.74695313 -143.8125 178.5 C-144.65748047 179.50546875 -144.65748047 179.50546875 -145.51953125 180.53125 C-147 182 -147 182 -149 182 C-149.1546875 182.9590625 -149.1546875 182.9590625 -149.3125 183.9375 C-149.539375 184.618125 -149.76625 185.29875 -150 186 C-150.99 186.33 -151.98 186.66 -153 187 C-157.49879049 184.22348429 -160.73891177 180.07636028 -164 176 C-165.83356914 174.39363399 -167.70240784 172.85039376 -169.609375 171.33203125 C-170.06828125 170.89246094 -170.5271875 170.45289063 -171 170 C-171 169.34 -171 168.68 -171 168 C-171.639375 167.731875 -172.27875 167.46375 -172.9375 167.1875 C-175 166 -175 166 -176 163 C-177.32407669 162.31513275 -178.65909241 161.65129797 -180 161 C-182.25 159 -182.25 159 -184 157 C-184 156.34 -184 155.68 -184 155 C-184.86625 154.6596875 -184.86625 154.6596875 -185.75 154.3125 C-188.59530878 152.65273655 -189.93653334 150.57933333 -192 148 C-194.09207039 146.1332295 -196.22574996 144.3324576 -198.390625 142.55078125 C-198.92171875 142.03902344 -199.4528125 141.52726563 -200 141 C-200 140.34 -200 139.68 -200 139 C-200.53238281 138.78085937 -201.06476563 138.56171875 -201.61328125 138.3359375 C-207.13134861 135.24726477 -212.43635493 130.25448093 -216 125 C-216.9049952 121.69086538 -217.09112074 119.10189089 -216.91015625 115.69140625 C-217.09677342 110.10100503 -221.42538092 106.00016897 -225 102 C-226.66270287 100.66172696 -228.32916181 99.32810215 -230 98 C-230.639375 97.195625 -231.27875 96.39125 -231.9375 95.5625 C-233.65645033 93.42683444 -235.13803439 91.9941588 -237.25 90.3125 C-238.61125 89.1678125 -238.61125 89.1678125 -240 88 C-240 87.34 -240 86.68 -240 86 C-240.928125 85.62875 -240.928125 85.62875 -241.875 85.25 C-244.38710296 83.77229238 -244.76107344 82.56044823 -246 80 C-246.99 79.67 -247.98 79.34 -249 79 C-249 78.34 -249 77.68 -249 77 C-249.55631104 76.76966064 -250.11262207 76.53932129 -250.68579102 76.30200195 C-253.63110696 74.64493159 -255.65172061 72.57222713 -258.02734375 70.16796875 C-258.49813858 69.69434402 -258.96893341 69.2207193 -259.45399475 68.73274231 C-260.9532789 67.22231245 -262.4454658 65.70508851 -263.9375 64.1875 C-264.9363829 63.17857482 -265.93572751 62.17010655 -266.93554688 61.16210938 C-268.78537161 59.29601596 -270.63187321 57.42685112 -272.47631836 55.55541992 C-273.3091333 54.71213135 -274.14194824 53.86884277 -275 53 C-275.87857666 52.10966064 -276.75715332 51.21932129 -277.66235352 50.30200195 C-279.99071389 48.00914451 -282.44397398 46.03171299 -285 44 C-287.3125 41.875 -287.3125 41.875 -289 40 C-289 39.34 -289 38.68 -289 38 C-274.74857386 35.29027209 -249.23815163 31.67372397 -236.48828125 39.62890625 C-233.27845767 42.36157229 -230.82497973 45.56075655 -228.45166016 49.02880859 C-225.9299952 52.45294631 -222.72794699 55.12282964 -219.5625 57.9375 C-218.31842154 59.09292563 -217.07754646 60.25180968 -215.83984375 61.4140625 C-213.87093569 63.2533368 -211.90137953 65.09189687 -209.93017578 66.92871094 C-202.82756459 73.5473142 -195.7593397 80.1682749 -188.9453125 87.0859375 C-186.36682124 89.62300721 -183.64316701 91.96613738 -180.8984375 94.3203125 C-178.41040974 96.52165393 -176.10805923 98.88088515 -173.78125 101.25 C-171.2880497 103.69945994 -168.63959829 105.95106322 -165.98828125 108.2265625 C-163.36938809 110.56247113 -160.95094746 113.06621718 -158.54296875 115.6171875 C-156.93511134 117.24255046 -156.93511134 117.24255046 -154 118 C-153.34 118.66 -152.68 119.32 -152 120 C-147.04396762 115.14511114 -142.26194243 110.23159567 -137.74609375 104.96484375 C-135.27396582 102.18300852 -132.61569453 99.60624049 -129.96484375 96.99609375 C-128.07769256 95.07892823 -126.31314625 93.10424678 -124.5625 91.0625 C-121.99334729 88.07198284 -119.30682744 85.26883316 -116.5 82.5 C-113.81673907 79.85269566 -111.24743099 77.18903057 -108.8125 74.3125 C-105.40840017 70.33440675 -101.718736 66.67999412 -98 63 C-93.72482917 58.76932164 -89.59050454 54.51605082 -85.703125 49.921875 C-82.76013736 46.60088894 -79.54989861 43.54330312 -76.39453125 40.42578125 C-74.39739109 38.40257727 -72.52509316 36.35339764 -70.6875 34.1875 C-67.47758483 30.42862072 -64.01189308 26.97282259 -60.5 23.5 C-55.25966859 18.31236135 -50.25981632 13.02197056 -45.61328125 7.2890625 C-39.87643092 0.22567321 -39.87643092 0.22567321 -34.27294922 -0.44824219 C-32.78393966 -0.49625375 -31.29435403 -0.52821447 -29.8046875 -0.546875 C-28.62170578 -0.57735931 -28.62170578 -0.57735931 -27.41482544 -0.60845947 C-25.75244874 -0.64858219 -24.08989225 -0.68177787 -22.42724609 -0.70849609 C-19.87670207 -0.74997232 -17.32735124 -0.81258935 -14.77734375 -0.87890625 C-13.16148564 -0.91529593 -11.54560015 -0.95049339 -9.9296875 -0.984375 C-8.7828096 -1.01081085 -8.7828096 -1.01081085 -7.61276245 -1.03778076 C-2.23385693 -1.11692847 -2.23385693 -1.11692847 0 0 Z " fill="#494E7B" transform="translate(739,413)"/>
<path d="M0 0 C2.89740622 -0.13539281 5.78845621 -0.23426829 8.6875 -0.3125 C9.50412109 -0.35439453 10.32074219 -0.39628906 11.16210938 -0.43945312 C15.45572233 -0.52636837 17.35301028 -0.51238714 20.81640625 2.23046875 C21.53699219 3.14441406 22.25757813 4.05835938 23 5 C23.70640625 5.75539063 24.4128125 6.51078125 25.140625 7.2890625 C29.87119077 12.52772607 34.40714729 17.88484102 38.84765625 23.37109375 C41.81176863 26.99150687 44.88739268 30.5070741 48 34 C46.65951283 36.93231569 45.15181514 39.16757113 43 41.5625 C42.38125 42.25472656 41.7625 42.94695313 41.125 43.66015625 C37.89577267 47.21586796 34.66509164 50.77021859 31.4296875 54.3203125 C25.44264198 60.64357286 25.44264198 60.64357286 20.4453125 67.70703125 C17.14779693 70.79911055 14.92887826 70.51897877 10.5390625 70.43945312 C9.61867188 70.39755859 8.69828125 70.35566406 7.75 70.3125 C6.81414063 70.28994141 5.87828125 70.26738281 4.9140625 70.24414062 C2.60774326 70.18530595 0.30469162 70.10317146 -2 70 C1.52927701 65.84294427 5.10926019 61.75416643 8.8125 57.75 C13.75913239 52.33403351 18.397209 46.70818569 23 41 C24.65839866 38.99287264 26.32789773 36.99573497 28 35 C25.38611916 30.90272684 22.65303345 27.36820469 19.3125 23.8125 C15.03877873 19.19209043 11.0230911 14.43240345 7.10546875 9.5078125 C4.97701388 6.88859492 4.97701388 6.88859492 2.23828125 4.3046875 C0 2 0 2 0 0 Z " fill="#484D79" transform="translate(815,514)"/>
<path d="M0 0 C-0.36641602 0.42700195 -0.73283203 0.85400391 -1.11035156 1.29394531 C-3.6984437 4.31145924 -6.28378933 7.33117595 -8.859375 10.359375 C-9.82285471 11.48963615 -10.78639778 12.61984329 -11.75 13.75 C-12.26079102 14.35126709 -12.77158203 14.95253418 -13.29785156 15.57202148 C-15.80314548 18.50430125 -18.33446304 21.38772126 -21 24.17578125 C-21.9075 25.12839844 -22.815 26.08101562 -23.75 27.0625 C-24.97976562 28.31740234 -24.97976562 28.31740234 -26.234375 29.59765625 C-28.25492738 32.34685916 -28.40393377 33.66754641 -28 37 C-27.34 37 -26.68 37 -26 37 C-24.5671282 38.61718311 -23.20375251 40.29623372 -21.875 42 C-19.05907734 45.52665075 -16.24925924 48.86818387 -13 52 C-8.26233212 56.61349514 -3.78794184 61.57237037 0 67 C0 67.99 0 68.98 0 70 C-16.14293341 71.09413215 -16.14293341 71.09413215 -21.8671875 66.109375 C-30 57.77805798 -30 57.77805798 -30 54 C-30.66 54 -31.32 54 -32 54 C-33.45402342 52.3623728 -34.83848678 50.66265804 -36.1875 48.9375 C-39.50056306 44.75992615 -42.8602956 41.03027649 -46.8828125 37.53515625 C-48 36 -48 36 -47.9296875 34.09375 C-46.71349482 31.35476145 -45.06318752 29.61172713 -43 27.4375 C-39.71958335 23.90314904 -36.58348058 20.32122449 -33.5625 16.5625 C-32.80839844 15.66015625 -32.05429688 14.7578125 -31.27734375 13.828125 C-28.94255793 11.00955253 -28.94255793 11.00955253 -26.87890625 7.859375 C-19.451064 -2.18172891 -11.47538143 -1.16638887 0 0 Z " fill="#4A4F7C" transform="translate(209,515)"/>
<path d="M0 0 C-1.56232021 3.67956291 -3.83584082 6.16515793 -6.5625 9.0625 C-10.85974467 13.70649641 -14.90656775 18.48193266 -18.8828125 23.40625 C-21.83123725 27.01834231 -24.89831792 30.51933426 -28 34 C-26.49924097 39.07581557 -23.40155408 42.1069084 -19.8125 45.8125 C-18.62941387 47.05914235 -17.44711555 48.30653285 -16.265625 49.5546875 C-15.69908203 50.14991211 -15.13253906 50.74513672 -14.54882812 51.35839844 C-11.59837148 54.48558483 -8.8008374 57.73965021 -6 61 C-5.4225 61.64839844 -4.845 62.29679688 -4.25 62.96484375 C-3.693125 63.59519531 -3.13625 64.22554687 -2.5625 64.875 C-2.06878906 65.42929687 -1.57507813 65.98359375 -1.06640625 66.5546875 C0 68 0 68 0 70 C-15.62331598 71.51682679 -15.62331598 71.51682679 -20.8828125 68.16015625 C-23.17429893 65.56067433 -25.08914554 62.8895848 -27 60 C-28.41841719 58.21384502 -29.85640516 56.44307534 -31.3125 54.6875 C-32.40304688 53.33785156 -32.40304688 53.33785156 -33.515625 51.9609375 C-38.13626211 46.45395176 -43.07872363 41.23770362 -48 36 C-46.43084899 32.2926652 -44.12104746 29.79108136 -41.375 26.875 C-37.18184206 22.35975892 -33.32204254 17.71326506 -29.59375 12.80078125 C-29.0678125 12.20652344 -28.541875 11.61226562 -28 11 C-27.34 11 -26.68 11 -26 11 C-25.773125 10.46375 -25.54625 9.9275 -25.3125 9.375 C-23.55729089 6.19890733 -21.80061782 3.32813558 -19 1 C-16.02943583 0.38437 -13.83358447 0.11422191 -10.875 0.125 C-10.15957031 0.104375 -9.44414062 0.08375 -8.70703125 0.0625 C-5.80468902 -0.01344914 -2.90319085 0 0 0 Z " fill="#765BFC" transform="translate(251,514)"/>
<path d="M0 0 C2.33534901 0.03794942 4.6696518 0.15510753 7 0.3125 C8.27875 0.39113281 9.5575 0.46976563 10.875 0.55078125 C11.90625 0.69902344 12.9375 0.84726562 14 1 C14.495 1.99 14.495 1.99 15 3 C14.34 3 13.68 3 13 3 C12.66742187 4.13308594 12.66742187 4.13308594 12.328125 5.2890625 C10.47064931 10.47906811 8.09520184 15.3898421 5.75 20.375 C0.14206338 32.3876625 -5.20162149 44.5035373 -10.45410156 56.67529297 C-10.74274078 57.34129013 -11.03138 58.00728729 -11.32876587 58.69346619 C-12.11425072 60.50614229 -12.89635181 62.3202836 -13.67822266 64.13452148 C-15 67 -15 67 -17 70 C-20.2578125 70.29296875 -20.2578125 70.29296875 -24.125 70.1875 C-26.04699219 70.14689453 -26.04699219 70.14689453 -28.0078125 70.10546875 C-28.99523437 70.07066406 -29.98265625 70.03585937 -31 70 C-29.44102422 64.96373074 -27.40184438 60.25884275 -25.21875 55.47265625 C-24.84862289 54.65442383 -24.47849579 53.83619141 -24.09715271 52.99316406 C-23.30775673 51.24848208 -22.51710931 49.50436587 -21.72531128 47.76077271 C-19.67670078 43.24950289 -17.63665212 38.73437203 -15.59765625 34.21875 C-14.99770592 32.8904995 -14.99770592 32.8904995 -14.38563538 31.53541565 C-10.74960691 23.47184839 -7.20498056 15.37117466 -3.73046875 7.23657227 C-3.3746875 6.40697998 -3.01890625 5.5773877 -2.65234375 4.72265625 C-2.35320068 4.01890869 -2.05405762 3.31516113 -1.74584961 2.59008789 C-1 1 -1 1 0 0 Z " fill="#795EFD" transform="translate(790,514)"/>
<path d="M0 0 C2.33534901 0.03794942 4.6696518 0.15510753 7 0.3125 C8.27875 0.39113281 9.5575 0.46976563 10.875 0.55078125 C11.90625 0.69902344 12.9375 0.84726562 14 1 C14.495 1.99 14.495 1.99 15 3 C14.34 3 13.68 3 13 3 C12.72019287 3.87873779 12.44038574 4.75747559 12.15209961 5.6628418 C11.10847194 8.68580145 9.92504218 11.50279611 8.56640625 14.39453125 C8.08719727 15.42143066 7.60798828 16.44833008 7.11425781 17.50634766 C6.60217773 18.59737793 6.09009766 19.6884082 5.5625 20.8125 C-0.48432592 33.79299496 -6.28481097 46.87005143 -12 60 C-13.40535954 55.78392139 -11.61300949 53.22731182 -9.84375 49.39453125 C-9.50380005 48.63766525 -9.1638501 47.88079926 -8.81359863 47.10099792 C-7.71814115 44.66728067 -6.60945843 42.23986203 -5.5 39.8125 C-4.78294406 38.22762499 -4.06678868 36.64234221 -3.3515625 35.05664062 C-2.28652242 32.69637616 -1.22075976 30.33646452 -0.15161133 27.97805786 C2.25405896 22.66991512 4.6283708 17.34897634 6.96875 12.01171875 C7.40773621 11.01372002 7.40773621 11.01372002 7.85559082 9.99555969 C9.0111633 7.3505052 10.08655984 4.74032049 11 2 C7.37 2 3.74 2 0 2 C-0.50273438 3.94519531 -0.50273438 3.94519531 -1.015625 5.9296875 C-3.43864483 13.99601697 -7.19425134 21.51155274 -10.75 29.125 C-12.14322984 32.12640035 -13.53305372 35.12936994 -14.921875 38.1328125 C-15.43155823 39.2343869 -15.43155823 39.2343869 -15.95153809 40.35821533 C-18.32848427 45.5090217 -20.6640309 50.67672675 -22.953125 55.8671875 C-23.39359161 56.85804855 -23.39359161 56.85804855 -23.84295654 57.868927 C-25.15877047 60.87448944 -26.35748042 63.77422741 -27 67 C-27.66 67 -28.32 67 -29 67 C-28.33787849 62.50448657 -26.65270453 58.61873783 -24.7890625 54.515625 C-24.4647374 53.79041153 -24.14041229 53.06519806 -23.80625916 52.31800842 C-22.75053477 49.95986779 -21.6878255 47.60494749 -20.625 45.25 C-19.53212787 42.8144415 -18.44090212 40.37814943 -17.34968567 37.94184875 C-16.61869386 36.3102915 -15.8870747 34.67901517 -15.15483093 33.04801941 C-12.92293331 28.07437144 -10.71176898 23.09233237 -8.52734375 18.09765625 C-7.76719971 16.35983887 -7.76719971 16.35983887 -6.99169922 14.58691406 C-6.05566066 12.44237202 -5.12103635 10.29721202 -4.18798828 8.15136719 C-3.77661621 7.21067383 -3.36524414 6.26998047 -2.94140625 5.30078125 C-2.41075562 4.08128784 -2.41075562 4.08128784 -1.86938477 2.8371582 C-1 1 -1 1 0 0 Z " fill="#5943E6" transform="translate(790,514)"/>
<path d="M0 0 C3.90871898 3.99716265 7.88066777 7.79563042 12.140625 11.421875 C14.89770918 13.85459633 17.43677779 16.49054567 20.015625 19.109375 C21.8677947 20.93237667 23.7717518 22.62853666 25.75 24.3125 C29.90807133 27.88123839 33.71882476 31.75287674 37.56616211 35.64819336 C40.9787981 39.08680977 44.49482232 42.32997397 48.1875 45.46875 C50.74121201 47.71425539 53.09869318 50.13406513 55.45703125 52.58203125 C57.13707372 54.28085505 57.13707372 54.28085505 60 56.0625 C60 56.7225 60 57.3825 60 58.0625 C57.1227007 56.75089942 54.99189701 55.32751299 52.70703125 53.1484375 C52.08521973 52.56022217 51.4634082 51.97200684 50.82275391 51.3659668 C50.15937012 50.72957275 49.49598633 50.09317871 48.8125 49.4375 C47.378986 48.0767389 45.94538944 46.71606477 44.51171875 45.35546875 C43.77099121 44.6495459 43.03026367 43.94362305 42.26708984 43.21630859 C40.02727515 41.08841228 37.77590296 38.97360309 35.51953125 36.86328125 C28.60988743 30.39855927 21.7749714 23.89618505 15.12890625 17.16015625 C12.49916373 14.56901545 9.73394345 12.17225885 6.9296875 9.7734375 C4.16716957 7.3240795 1.61253581 4.68472017 -0.9765625 2.0546875 C-3.6588295 -0.58615452 -6.47807388 -3.04421667 -9.3359375 -5.4921875 C-10.60166464 -6.59152798 -11.8145434 -7.7520434 -13 -8.9375 C-14.85536424 -9.26639388 -14.85536424 -9.26639388 -16.99072266 -9.25634766 C-17.81142242 -9.27621735 -18.63212219 -9.29608704 -19.47769165 -9.31655884 C-20.36419403 -9.32811005 -21.25069641 -9.33966125 -22.1640625 -9.3515625 C-23.07127045 -9.37092865 -23.97847839 -9.3902948 -24.91317749 -9.4102478 C-27.81702204 -9.47013216 -30.72090604 -9.51646416 -33.625 -9.5625 C-35.59116333 -9.60067165 -37.5573098 -9.63972289 -39.5234375 -9.6796875 C-44.3488217 -9.77584091 -49.17428418 -9.859839 -54 -9.9375 C-54 -10.2675 -54 -10.5975 -54 -10.9375 C-48.45100694 -11.23023614 -42.90222573 -11.48106936 -37.34960938 -11.69433594 C-35.46368949 -11.77253892 -33.57819602 -11.86189381 -31.69335938 -11.96289062 C-28.97303107 -12.10667119 -26.25365682 -12.20938011 -23.53125 -12.3046875 C-22.69758911 -12.35752899 -21.86392822 -12.41037048 -21.00500488 -12.46481323 C-11.58107597 -12.70592634 -6.14634671 -6.41376084 0 0 Z " fill="#212139" transform="translate(510,461.9375)"/>
<path d="M0 0 C0.66 0 1.32 0 2 0 C2 2 2 2 0 4.125 C-0.99758513 5.08584686 -1.99794171 6.04381908 -3 7 C-6.96155779 10.87207701 -10.83974723 14.730037 -14.375 19 C-15.24125 19.99 -16.1075 20.98 -17 22 C-17.66 22 -18.32 22 -19 22 C-19.20238281 22.53109375 -19.40476562 23.0621875 -19.61328125 23.609375 C-21.60452817 27.04217251 -24.34466223 29.50897623 -27.1875 32.25 C-31.42203033 36.40127359 -35.48865224 40.58563977 -39.328125 45.109375 C-42.0102136 48.14239108 -44.92733249 50.93508434 -47.80859375 53.77734375 C-50.41718411 56.42313326 -52.82623222 59.20295018 -55.2421875 62.0234375 C-57.77139059 64.86738587 -60.49069191 67.50416982 -63.20703125 70.16796875 C-65.18086338 72.12079541 -65.18086338 72.12079541 -67.375 75 C-67.91125 75.66 -68.4475 76.32 -69 77 C-69.66 77 -70.32 77 -71 77 C-71.25523437 77.58265625 -71.51046875 78.1653125 -71.7734375 78.765625 C-73.11741087 81.21388223 -74.61810296 82.81743248 -76.625 84.75 C-77.25664063 85.36359375 -77.88828125 85.9771875 -78.5390625 86.609375 C-79.26222656 87.29773438 -79.26222656 87.29773438 -80 88 C-80 84.47778281 -79.58892755 84.19949084 -77.24609375 81.76953125 C-76.64676025 81.13990479 -76.04742676 80.51027832 -75.42993164 79.86157227 C-74.7724292 79.18537842 -74.11492676 78.50918457 -73.4375 77.8125 C-72.04927977 76.35956549 -70.66126445 74.90643517 -69.2734375 73.453125 C-68.20367676 72.3403418 -68.20367676 72.3403418 -67.11230469 71.20507812 C-63.8997988 67.85147743 -60.73245668 64.45625317 -57.5625 61.0625 C-56.31932373 59.73668532 -55.07583072 58.41116755 -53.83203125 57.0859375 C-51.18088886 54.26033283 -48.53311785 51.43160962 -45.88671875 48.6015625 C-39.98319544 42.29789451 -34.08318655 36.00662159 -27.9375 29.9375 C-24.38490056 26.42719341 -21.05076468 22.82998357 -17.8125 19.03125 C-14.81716229 15.67440602 -11.57554279 12.56583133 -8.37109375 9.41015625 C-6.29750074 7.30240191 -4.38189561 5.15259982 -2.5 2.875 C-1.2625 1.451875 -1.2625 1.451875 0 0 Z " fill="#30314F" transform="translate(671,444)"/>
<path d="M0 0 C1.65 0 3.3 0 5 0 C5 0.99 5 1.98 5 3 C6.71645595 5.12212128 6.71645595 5.12212128 9 7.25 C9.7425 7.97703125 10.485 8.7040625 11.25 9.453125 C13.28405669 11.33693886 15.33511673 13.14360456 17.44165039 14.94165039 C23.09016641 19.87826352 28.37229494 25.18798841 33.68359375 30.48046875 C34.22663713 31.02068476 34.76968052 31.56090076 35.32917976 32.11748695 C38.19242969 34.96586483 41.05288631 37.81701145 43.91088867 40.6706543 C46.85867452 43.61291439 49.81565802 46.54575044 52.77479458 49.47658825 C55.0574476 51.74064483 57.3333914 54.01135511 59.60753059 56.28396034 C60.69550672 57.3689122 61.7859807 58.45136529 62.8789959 59.53124046 C64.40101417 61.03623089 65.91331573 62.55036996 67.42358398 64.06713867 C68.71642555 65.3545118 68.71642555 65.3545118 70.03538513 66.66789246 C71.9218475 68.90722862 72.63820448 70.13961468 73 73 C67.71681894 68.69973635 62.99748461 64.18387455 58.5625 59 C56.37189105 56.4538975 54.18872593 54.21854803 51.5625 52.125 C50.2940625 51.073125 50.2940625 51.073125 49 50 C49 49.34 49 48.68 49 48 C48.38125 47.7525 47.7625 47.505 47.125 47.25 C44.61289704 45.77229238 44.23892656 44.56044823 43 42 C42.01 41.67 41.02 41.34 40 41 C40 40.34 40 39.68 40 39 C39.16553345 38.65449097 39.16553345 38.65449097 38.31420898 38.30200195 C35.36889304 36.64493159 33.34827939 34.57222713 30.97265625 32.16796875 C30.50186142 31.69434402 30.03106659 31.2207193 29.54600525 30.73274231 C28.0467211 29.22231245 26.5545342 27.70508851 25.0625 26.1875 C24.0636171 25.17857482 23.06427249 24.17010655 22.06445312 23.16210938 C20.21462839 21.29601596 18.36812679 19.42685112 16.52368164 17.55541992 C15.6908667 16.71213135 14.85805176 15.86884277 14 15 C13.12142334 14.10966064 12.24284668 13.21932129 11.33764648 12.30200195 C9.00928611 10.00914451 6.55602602 8.03171299 4 6 C1.6875 3.875 1.6875 3.875 0 2 C0 1.34 0 0.68 0 0 Z " fill="#38375D" transform="translate(450,451)"/>
<path d="M0 0 C9.30105093 0.5936841 15.36219993 5.1781243 22.02807617 11.42871094 C22.59472835 11.95628368 23.16138052 12.48385643 23.74520397 13.02741623 C29.76744335 18.66569596 35.60764307 24.48074286 41.42578125 30.328125 C42.55041186 31.4546283 43.67526909 32.5809054 44.80033875 33.70697021 C47.71390401 36.62429374 50.62445017 39.54461014 53.53430176 42.46563721 C56.52294481 45.4646411 59.51453861 48.46069863 62.50585938 51.45703125 C68.34007414 57.30186478 74.1710916 63.14987457 80 69 C79.67 69.66 79.34 70.32 79 71 C76.4060342 69.05452565 74.19384765 67.24732286 72.1875 64.6875 C69.62691109 61.54163363 66.73360085 59.12199632 63.609375 56.55078125 C63.07828125 56.03902344 62.5471875 55.52726562 62 55 C62 54.34 62 53.68 62 53 C61.34 53 60.68 53 60 53 C58.7734375 51.71484375 58.7734375 51.71484375 57.375 49.9375 C55.16796627 47.25106529 52.89218889 44.94677543 50.23535156 42.70727539 C46.22301545 39.24565546 42.53005151 35.56370467 38.859375 31.74609375 C37.5281164 30.38270867 36.19606011 29.02010211 34.86328125 27.65820312 C32.80457587 25.55027103 30.75086202 23.43839804 28.71044922 21.31274414 C20.67745819 12.95947847 13.84785805 6.4280858 3 2 C2.01 1.34 1.02 0.68 0 0 Z " fill="#5E47E7" transform="translate(428,452)"/>
<path d="M0 0 C0 3.75803653 -0.90605184 4.28380887 -3.4375 6.9375 C-6.55766286 10.20894349 -8 12.43668856 -8 17 C-7.34 17 -6.68 17 -6 17 C-4.5671282 18.61718311 -3.20375251 20.29623372 -1.875 22 C0.94092266 25.52665075 3.75074076 28.86818387 7 32 C11.73766788 36.61349514 16.21205816 41.57237037 20 47 C20 47.99 20 48.98 20 50 C3.85706659 51.09413215 3.85706659 51.09413215 -1.8671875 46.109375 C-10 37.77805798 -10 37.77805798 -10 34 C-10.66 34 -11.32 34 -12 34 C-13.51740976 32.30096977 -14.965128 30.53927277 -16.375 28.75 C-18.59229313 25.94686688 -20.7305752 23.26298803 -23.2890625 20.765625 C-25 19 -25 19 -25 17 C-24.34 17 -23.68 17 -23 17 C-21.67018907 18.49109234 -20.4130127 20.04706714 -19.1875 21.625 C-14.8678626 27.03857155 -10.27715734 32.10955259 -5.51831055 37.13916016 C-4.99019775 37.69909668 -4.46208496 38.2590332 -3.91796875 38.8359375 C-3.4089502 39.36968994 -2.89993164 39.90344238 -2.37548828 40.45336914 C-1 42 -1 42 0.93359375 44.89453125 C2.92029811 47.34599286 2.92029811 47.34599286 6.453125 47.48828125 C7.70609375 47.43027344 8.9590625 47.37226562 10.25 47.3125 C12.14492187 47.24482422 12.14492187 47.24482422 14.078125 47.17578125 C15.04234375 47.11777344 16.0065625 47.05976562 17 47 C16.23816406 46.17757812 15.47632813 45.35515625 14.69140625 44.5078125 C3.4081039 32.31435924 3.4081039 32.31435924 -1.94921875 26.28125 C-3.32024073 24.75615126 -4.71929536 23.25581099 -6.14453125 21.78125 C-6.79808594 21.0903125 -7.45164063 20.399375 -8.125 19.6875 C-8.99511719 18.79611328 -8.99511719 18.79611328 -9.8828125 17.88671875 C-11 16 -11 16 -10.99609375 13.6328125 C-9.67799592 10.14889903 -7.48776215 7.81493652 -4.9375 5.1875 C-4.46505859 4.68541016 -3.99261719 4.18332031 -3.50585938 3.66601562 C-2.34591548 2.43577211 -1.17411185 1.21672935 0 0 Z " fill="#2F3050" transform="translate(189,535)"/>
<path d="M0 0 C2 2 2 2 2.1328125 4.35546875 C2.13023437 5.29003906 2.12765625 6.22460938 2.125 7.1875 C2.438536 11.37887008 2.438536 11.37887008 4.48828125 14.9296875 C5.83001401 16.05362396 7.20673292 17.13665767 8.609375 18.18359375 C11.38516378 20.29264895 13.74339289 22.64064562 16.1875 25.125 C16.98542969 25.93195312 17.78335938 26.73890625 18.60546875 27.5703125 C19.79076172 28.77300781 19.79076172 28.77300781 21 30 C22.66581534 31.66752523 24.33265772 33.33400271 26 35 C27.2602207 36.26012435 28.52038866 37.52030145 29.78051758 38.78051758 C30.48086624 39.48086624 31.1812149 40.1812149 31.90278625 40.90278625 C41.6018575 50.6018575 51.30092875 60.30092875 61 70 C60.67 70.66 60.34 71.32 60 72 C59.29875 71.278125 58.5975 70.55625 57.875 69.8125 C55.07778846 67.00736435 52.04817591 64.52933745 49 62 C46.625 59.8125 46.625 59.8125 45 58 C45 57.34 45 56.68 45 56 C44.360625 55.731875 43.72125 55.46375 43.0625 55.1875 C41 54 41 54 40 51 C38.67592331 50.31513275 37.34090759 49.65129797 36 49 C33.75 47 33.75 47 32 45 C32 44.34 32 43.68 32 43 C31.4225 42.773125 30.845 42.54625 30.25 42.3125 C27.40469122 40.65273655 26.06346666 38.57933333 24 36 C21.90792961 34.1332295 19.77425004 32.3324576 17.609375 30.55078125 C16.81273437 29.78314453 16.81273437 29.78314453 16 29 C16 28.34 16 27.68 16 27 C15.46890625 26.77957031 14.9378125 26.55914063 14.390625 26.33203125 C8.87075084 23.25641509 3.40056955 18.37976069 0 13 C-0.96101439 8.46881715 -0.79186457 4.54588918 0 0 Z " fill="#373759" transform="translate(523,525)"/>
<path d="M0 0 C2.89740622 -0.13539281 5.78845621 -0.23426829 8.6875 -0.3125 C9.50412109 -0.35439453 10.32074219 -0.39628906 11.16210938 -0.43945312 C15.45572233 -0.52636837 17.35301028 -0.51238714 20.81640625 2.23046875 C21.53699219 3.14441406 22.25757813 4.05835938 23 5 C23.70640625 5.75539063 24.4128125 6.51078125 25.140625 7.2890625 C29.87119077 12.52772607 34.40714729 17.88484102 38.84765625 23.37109375 C41.81176863 26.99150687 44.88739268 30.5070741 48 34 C46.25 37.875 46.25 37.875 44 39 C44.24492188 38.27039063 44.48984375 37.54078125 44.7421875 36.7890625 C45.30473377 33.92695129 45.30473377 33.92695129 43.4453125 31.7109375 C42.67960938 30.94007813 41.91390625 30.16921875 41.125 29.375 C37.74991708 25.85362866 34.55162849 22.30644826 31.5 18.5 C30.75105469 17.59507812 30.00210938 16.69015625 29.23046875 15.7578125 C27.74312171 13.91881598 26.30715432 12.03706194 24.92578125 10.1171875 C21.67946557 5.90477788 19.62982939 3.37371884 14.3203125 2.15625 C10.84287255 1.904363 7.48064769 1.83166142 4 2 C4.40089844 2.44988281 4.80179688 2.89976562 5.21484375 3.36328125 C9.45485835 8.1609395 13.53794409 13.06852007 17.578125 18.03515625 C21.67950544 23.05603973 25.84198219 28.02600374 30 33 C29.01 33 28.02 33 27 33 C25.125 31.015625 25.125 31.015625 23 28.25 C19.60011858 23.9475442 16.10642965 19.82997379 12.375 15.8125 C11.91182373 15.31153809 11.44864746 14.81057617 10.97143555 14.29443359 C9.64778252 12.86280887 8.32389585 11.43140018 7 10 C5.59657953 8.46523689 4.19955041 6.92457348 2.8125 5.375 C1.98685547 4.45847656 1.98685547 4.45847656 1.14453125 3.5234375 C0 2 0 2 0 0 Z " fill="#2F314C" transform="translate(815,514)"/>
<path d="M0 0 C-3.13260587 2.08840391 -3.822201 2.24972907 -7.38201904 2.24723816 C-8.2784613 2.25143265 -9.17490356 2.25562714 -10.09851074 2.25994873 C-11.08017212 2.25432922 -12.0618335 2.24870972 -13.07324219 2.24291992 C-14.62782135 2.24576744 -14.62782135 2.24576744 -16.21380615 2.24867249 C-19.65823828 2.25239101 -23.10246139 2.24164659 -26.546875 2.23046875 C-28.95371476 2.22927565 -31.36055498 2.22882406 -33.76739502 2.2290802 C-38.83161304 2.2275126 -43.89576066 2.21921257 -48.95996094 2.20581055 C-55.38657957 2.18900222 -61.81311951 2.18499105 -68.23975754 2.18575573 C-73.22471847 2.18548057 -78.20966287 2.17994174 -83.19461823 2.17275429 C-85.5591952 2.16961299 -87.92377402 2.16761108 -90.28835297 2.16686058 C-105.55117058 2.15673161 -120.75748901 1.80128576 -136 1 C-136 0.67 -136 0.34 -136 0 C-118.71081474 -0.15386525 -101.42159077 -0.30189952 -84.13229656 -0.4429636 C-76.10485417 -0.50859628 -68.07743644 -0.57614782 -60.05004883 -0.64819336 C-53.05461075 -0.71097234 -46.05915319 -0.77017479 -39.06364852 -0.82505554 C-35.35848586 -0.8542487 -31.653358 -0.88525101 -27.94824791 -0.92053413 C-23.81538429 -0.95982375 -19.68249765 -0.99112937 -15.54956055 -1.02172852 C-13.70026695 -1.04114754 -13.70026695 -1.04114754 -11.81361389 -1.06095886 C-10.69040741 -1.06799835 -9.56720093 -1.07503784 -8.40995789 -1.08229065 C-7.43193553 -1.09058679 -6.45391317 -1.09888292 -5.44625378 -1.10743046 C-3 -1 -3 -1 0 0 Z " fill="#492FE8" transform="translate(473,401)"/>
<path d="M0 0 C0.79339783 0.00424484 1.58679565 0.00848969 2.40423584 0.01286316 C4.9312982 0.02961835 7.45755483 0.06726369 9.984375 0.10546875 C11.70050929 0.12051972 13.41665612 0.13420741 15.1328125 0.14648438 C19.33364246 0.1795114 23.53387225 0.2312711 27.734375 0.29296875 C27.734375 0.62296875 27.734375 0.95296875 27.734375 1.29296875 C26.75267334 1.23947266 25.77097168 1.18597656 24.75952148 1.13085938 C5.1952939 -0.65217647 5.1952939 -0.65217647 -12.5078125 5.5 C-15.73237611 8.72854357 -18.30882194 12.35094134 -20.7890625 16.17041016 C-23.18792391 19.61877343 -26.16896106 22.40893618 -29.203125 25.29296875 C-30.19317469 26.27034729 -31.1816588 27.24931643 -32.16796875 28.23046875 C-33.20630859 29.25140625 -33.20630859 29.25140625 -34.265625 30.29296875 C-34.265625 27.29296875 -34.265625 27.29296875 -32.32421875 25.09375 C-31.45925781 24.27261719 -30.59429688 23.45148438 -29.703125 22.60546875 C-24.27961647 17.342827 -19.33381495 11.84581969 -14.578125 5.98046875 C-9.99975311 0.65965818 -6.95899739 -0.1405198 0 0 Z " fill="#23243D" transform="translate(709.265625,412.70703125)"/>
<path d="M0 0 C5.19252967 2.62147129 8.81472248 6.62811462 12.8125 10.75 C17.47726115 15.53528608 22.19759308 20.13229092 27.26586914 24.49072266 C29.20809248 26.18111047 31.02720435 27.95770379 32.8125 29.8125 C34.84556753 31.92283375 36.52029141 33.34686094 39 35 C39 35.66 39 36.32 39 37 C36.1227007 35.68839942 33.99189701 34.26501299 31.70703125 32.0859375 C31.0845752 31.49723877 30.46211914 30.90854004 29.82080078 30.30200195 C29.15806152 29.66609131 28.49532227 29.03018066 27.8125 28.375 C26.38955477 27.02189156 24.96636908 25.66903595 23.54296875 24.31640625 C22.80353027 23.6114502 22.0640918 22.90649414 21.30224609 22.18017578 C18.96361375 19.96554304 16.60452597 17.77492665 14.23828125 15.58984375 C13.46701904 14.8745752 12.69575684 14.15930664 11.90112305 13.42236328 C10.40754104 12.03788021 8.91041539 10.6572082 7.40942383 9.28076172 C6.73032959 8.64799316 6.05123535 8.01522461 5.3515625 7.36328125 C4.75166504 6.80938721 4.15176758 6.25549316 3.53369141 5.68481445 C1.90998989 3.9011207 0.97065826 2.19762066 0 0 Z " fill="#333353" transform="translate(531,483)"/>
<path d="M0 0 C0.66 0 1.32 0 2 0 C3.29074548 1.64087874 4.50761027 3.34018552 5.6875 5.0625 C17.41832129 21.51092267 32.81244591 28.98602601 52 34 C52 34.33 52 34.66 52 35 C33.2473897 33.77032064 18.9851808 23.77796058 6.5625 10.3125 C3.71780386 7.0367893 1.64441987 4.00827342 0 0 Z " fill="#5941ED" transform="translate(272,463)"/>
<path d="M0 0 C2.475 0.495 2.475 0.495 5 1 C5.0721875 1.55558594 5.144375 2.11117187 5.21875 2.68359375 C6.29846983 5.88496303 8.17276776 7.62393412 10.5 10.0625 C15.59371747 15.5132878 20.31662212 21.19187389 25 27 C26.65839866 29.00712736 28.32789773 31.00426503 30 33 C29.01 33 28.02 33 27 33 C25.125 31.015625 25.125 31.015625 23 28.25 C19.60011858 23.9475442 16.10642965 19.82997379 12.375 15.8125 C11.91182373 15.31153809 11.44864746 14.81057617 10.97143555 14.29443359 C9.64778252 12.86280887 8.32389585 11.43140018 7 10 C5.59657953 8.46523689 4.19955041 6.92457348 2.8125 5.375 C1.98685547 4.45847656 1.98685547 4.45847656 1.14453125 3.5234375 C0 2 0 2 0 0 Z " fill="#353658" transform="translate(815,514)"/>
<path d="M0 0 C4.79833434 3.87557774 9.42907477 7.92483886 13 13 C13 13.66 13 14.32 13 15 C-2.73360391 16.52753436 -2.73360391 16.52753436 -8.19921875 12.84375 C-14 6.3423913 -14 6.3423913 -14 3 C-13.34 3 -12.68 3 -12 3 C-10.89747585 4.6330398 -9.81819335 6.28180031 -8.75 7.9375 C-6.04897662 11.48384366 -4.74273732 12.81909724 -0.359375 13.88671875 C3.12366774 14.10176491 6.51536664 14.16640103 10 14 C8.89847594 12.56047403 7.7936696 11.12345929 6.6875 9.6875 C6.07261719 8.88699219 5.45773438 8.08648438 4.82421875 7.26171875 C3.0971954 5.0242888 3.0971954 5.0242888 1.26953125 3.33203125 C0 2 0 2 0 0 Z " fill="#4F39E1" transform="translate(238,569)"/>
<path d="M0 0 C6.27 0 12.54 0 19 0 C17.02 2.31 15.04 4.62 13 7 C9.70567119 11.02750375 9.70567119 11.02750375 6.4375 15.07617188 C5.33555236 16.42129624 4.17241275 17.71582848 3 19 C2.34 19 1.68 19 1 19 C2.55817184 15.35015184 4.81124399 12.8314046 7.5 9.9375 C9.90536731 7.34079665 12.03404204 4.94893694 14 2 C11.89611431 1.94597726 9.79183286 1.90719744 7.6875 1.875 C6.51574219 1.85179687 5.34398437 1.82859375 4.13671875 1.8046875 C0.83606339 1.74679382 0.83606339 1.74679382 -2 4 C-1.34 2.68 -0.68 1.36 0 0 Z " fill="#282845" transform="translate(190,515)"/>
<path d="M0 0 C0 4.38968456 -2.12805101 5.76905739 -5 9 C-0.88140969 14.26321094 3.20336609 19.33300484 8 24 C9.70894341 25.96858951 11.35400384 27.97777615 13 30 C12.67 30.66 12.34 31.32 12 32 C8.49261055 28.22192532 4.99534667 24.43496212 1.50927734 20.63720703 C0.22951264 19.24896664 -1.06175044 17.87133991 -2.35546875 16.49609375 C-2.98066406 15.81675781 -3.60585937 15.13742187 -4.25 14.4375 C-4.79140625 13.85871094 -5.3328125 13.27992188 -5.890625 12.68359375 C-7 11 -7 11 -7 7 C-5.46875 5.078125 -5.46875 5.078125 -3.5 3.25 C-2.8503125 2.63640625 -2.200625 2.0228125 -1.53125 1.390625 C-1.0259375 0.93171875 -0.520625 0.4728125 0 0 Z " fill="#5843E2" transform="translate(211,540)"/>
<path d="M0 0 C0.33 0.66 0.66 1.32 1 2 C1.8765625 1.98839844 2.753125 1.97679687 3.65625 1.96484375 C16.12341302 1.87615458 28.54840605 2.41360229 41 3 C41 3.33 41 3.66 41 4 C27.14 4 13.28 4 -1 4 C-1.33 3.34 -1.66 2.68 -2 2 C-1.34 2 -0.68 2 0 2 C0 1.34 0 0.68 0 0 Z " fill="#505486" transform="translate(455,450)"/>
<path d="M0 0 C-1.37025303 4.3303024 -3.21330572 6.37700626 -6.6875 9.25 C-11.49690874 13.40326299 -15.31554648 17.83932503 -19 23 C-19.33 22.01 -19.66 21.02 -20 20 C-19.28714844 19.2265625 -18.57429687 18.453125 -17.83984375 17.65625 C-16.87227018 16.60428223 -15.90483136 15.5521905 -14.9375 14.5 C-14.43742432 13.95698242 -13.93734863 13.41396484 -13.42211914 12.85449219 C-9.96620794 9.08966961 -6.60730341 5.25866327 -3.33984375 1.328125 C-2 0 -2 0 0 0 Z " fill="#313252" transform="translate(838,558)"/>
<path d="M0 0 C3.46629835 1.48653506 5.69022036 3.45722351 8.328125 6.1328125 C9.12734375 6.93847656 9.9265625 7.74414062 10.75 8.57421875 C11.575 9.41597656 12.4 10.25773438 13.25 11.125 C14.51070312 12.39923828 14.51070312 12.39923828 15.796875 13.69921875 C17.86915683 15.79504923 19.93662393 17.89540713 22 20 C21.67 20.66 21.34 21.32 21 22 C20.29875 21.278125 19.5975 20.55625 18.875 19.8125 C16.07778846 17.00736435 13.04817591 14.52933745 10 12 C7.625 9.8125 7.625 9.8125 6 8 C6 7.34 6 6.68 6 6 C5.38125 5.7525 4.7625 5.505 4.125 5.25 C1.64931313 3.79371361 1.04874998 2.62187494 0 0 Z " fill="#32324F" transform="translate(562,575)"/>
<path d="M0 0 C-1.39332574 3.36720387 -2.9789286 4.9859524 -6 7 C-5.34 5.68 -4.68 4.36 -4 3 C-12.66326068 1.87222185 -12.66326068 1.87222185 -20.48828125 4.78125 C-22.18807533 6.78017969 -23.66133973 8.74541428 -25 11 C-25 7.05348773 -23.93771549 5.45348634 -21.38671875 2.51953125 C-15.50188609 -1.22711344 -6.74465814 0 0 0 Z " fill="#5039DC" transform="translate(251,514)"/>
<path d="M0 0 C4.62723596 2.0856395 7.64760553 5.31698938 11.1875 8.875 C12.14946289 9.81279297 12.14946289 9.81279297 13.13085938 10.76953125 C14.04641602 11.68412109 14.04641602 11.68412109 14.98046875 12.6171875 C15.81421021 13.44645752 15.81421021 13.44645752 16.66479492 14.29248047 C18.14705898 16.18806555 18.59091373 17.64943843 19 20 C11.98930731 14.29362223 5.7877232 7.95101248 0 1 C0 0.67 0 0.34 0 0 Z " fill="#2F2F4E" transform="translate(504,504)"/>
<path d="M0 0 C3.1857029 1.39330742 5.19822217 3.02896738 7.5625 5.5625 C9.8343494 7.99626295 10.76779382 8.92259794 14 10 C14.66 10.66 15.32 11.32 16 12 C16.66 12 17.32 12 18 12 C18 12.66 18 13.32 18 14 C16.2421875 14.7265625 16.2421875 14.7265625 14 15 C12.0703125 13.5234375 12.0703125 13.5234375 10.125 11.375 C7.68649044 8.76296354 5.30934165 6.33519296 2.5 4.125 C1.675 3.42375 0.85 2.7225 0 2 C0 1.34 0 0.68 0 0 Z " fill="#323353" transform="translate(571,521)"/>
<path d="M0 0 C0 2 0 2 -1.9375 4.0625 C-2.95651572 5.04355811 -3.97770626 6.02235817 -5 7 C-6.54610545 8.51632058 -8.08745684 10.03749798 -9.625 11.5625 C-10.38039063 12.30628906 -11.13578125 13.05007813 -11.9140625 13.81640625 C-13.79605905 15.78651125 -15.42174416 17.78340502 -17 20 C-17.66 19.67 -18.32 19.34 -19 19 C-16.68124234 16.32037608 -14.34369229 13.65783799 -12 11 C-11.13503906 10.01644531 -10.27007812 9.03289063 -9.37890625 8.01953125 C-8.48231903 7.01253248 -7.58518761 6.00601795 -6.6875 5 C-5.84574219 4.05125 -5.00398438 3.1025 -4.13671875 2.125 C-2 0 -2 0 0 0 Z " fill="#5E46EE" transform="translate(299,564)"/>
<path d="M0 0 C0.33 0.99 0.66 1.98 1 3 C-0.75 5.375 -0.75 5.375 -3 8 C-3.6496875 9.2065625 -3.6496875 9.2065625 -4.3125 10.4375 C-6.64510934 13.97961047 -9.70461202 16.37271807 -13 19 C-11.96588163 16.81536898 -11.1936524 15.1859063 -9.4375 13.5 C-7.85316205 12.11511167 -7.85316205 12.11511167 -7.6328125 10.171875 C-6.81618018 7.36911221 -5.40093798 5.89193234 -3.4375 3.75 C-2.47650391 2.69039062 -2.47650391 2.69039062 -1.49609375 1.609375 C-1.00238281 1.07828125 -0.50867188 0.5471875 0 0 Z " fill="#4D517F" transform="translate(187,518)"/>
<path d="M0 0 C0.33 0.66 0.66 1.32 1 2 C-0.28062485 3.7074998 -1.61767557 5.37373596 -3 7 C-3.66 7 -4.32 7 -5 7 C-5.25523437 7.58265625 -5.51046875 8.1653125 -5.7734375 8.765625 C-7.11741087 11.21388223 -8.61810296 12.81743248 -10.625 14.75 C-11.57246094 15.67039062 -11.57246094 15.67039062 -12.5390625 16.609375 C-13.02117188 17.06828125 -13.50328125 17.5271875 -14 18 C-14 14.36535685 -13.37451463 13.97159118 -10.9375 11.42578125 C-10.30585937 10.75869141 -9.67421875 10.09160156 -9.0234375 9.40429688 C-8.35570312 8.71400391 -7.68796875 8.02371094 -7 7.3125 C-5.99839844 6.2596582 -5.99839844 6.2596582 -4.9765625 5.18554688 C-3.32422679 3.45059438 -1.6652685 1.72252793 0 0 Z " fill="#323452" transform="translate(605,514)"/>
<path d="M0 0 C-0.66 0.66 -1.32 1.32 -2 2 C-4.1015625 1.9140625 -4.1015625 1.9140625 -6.625 1.625 C-10.12366315 1.51312414 -11.57144262 1.68819704 -14.4375 3.7734375 C-16.40602462 5.77711435 -18.24698486 7.80628274 -20 10 C-20.66 9.67 -21.32 9.34 -22 9 C-16.0405267 -0.32787126 -10.71493835 -1.21897473 0 0 Z " fill="#535789" transform="translate(205,516)"/>
<path d="M0 0 C-3.72545591 2.48363727 -5.42770369 2.16338803 -9.85546875 1.9765625 C-10.51710526 1.95153656 -11.17874176 1.92651062 -11.86042786 1.90072632 C-13.96998434 1.81866907 -16.07858425 1.7220279 -18.1875 1.625 C-19.61910177 1.5667456 -21.0507426 1.50944263 -22.48242188 1.453125 C-25.98880136 1.31311345 -29.49447012 1.16001787 -33 1 C-33 0.67 -33 0.34 -33 0 C-28.78271077 -0.16777849 -24.56522682 -0.32832034 -20.34741211 -0.48217773 C-18.91276652 -0.53552897 -17.47819286 -0.5908529 -16.04370117 -0.64819336 C-13.98111481 -0.730297 -11.91837332 -0.80528996 -9.85546875 -0.87890625 C-8.61434326 -0.9260376 -7.37321777 -0.97316895 -6.09448242 -1.02172852 C-3 -1 -3 -1 0 0 Z " fill="#4F35E5" transform="translate(473,401)"/>
<path d="M0 0 C0 2 0 2 -1.9375 4.0625 C-2.95815287 5.04185478 -3.97902409 6.020982 -5 7 C-6.60685146 8.60147737 -8.21086157 10.20580908 -9.8125 11.8125 C-11.20833333 13.20833333 -12.60416667 14.60416667 -14 16 C-14 12.56655118 -13.66795375 12.26243281 -11.4453125 9.86328125 C-10.91292969 9.28642578 -10.38054688 8.70957031 -9.83203125 8.11523438 C-9.26871094 7.52033203 -8.70539062 6.92542969 -8.125 6.3125 C-7.56941406 5.70599609 -7.01382813 5.09949219 -6.44140625 4.47460938 C-2.26376195 0 -2.26376195 0 0 0 Z " fill="#2E314C" transform="translate(673,444)"/>
<path d="M0 0 C1.60546875 1.84765625 1.60546875 1.84765625 3.1875 4.0625 C3.71730469 4.79597656 4.24710938 5.52945313 4.79296875 6.28515625 C5.19128906 6.85105469 5.58960938 7.41695312 6 8 C5.01 8 4.02 8 3 8 C2.38125 7.030625 1.7625 6.06125 1.125 5.0625 C-0.87538305 2.41401777 -1.87541831 2.02406864 -5.21484375 1.37890625 C-8.48405751 1.14817998 -11.72304424 1.00959577 -15 1 C-15 0.67 -15 0.34 -15 0 C-13.06325815 -0.19517554 -11.12555991 -0.38087873 -9.1875 -0.5625 C-8.10855469 -0.66691406 -7.02960937 -0.77132812 -5.91796875 -0.87890625 C-3 -1 -3 -1 0 0 Z " fill="#222338" transform="translate(835,515)"/>
<path d="M0 0 C1.65 0 3.3 0 5 0 C5 0.99 5 1.98 5 3 C6.99157649 5.35666976 6.99157649 5.35666976 9.5 7.6875 C10.3353125 8.49574219 11.170625 9.30398438 12.03125 10.13671875 C12.6809375 10.75160156 13.330625 11.36648438 14 12 C10.49518322 12 10.07159595 11.50762753 7.5625 9.25 C6.9540625 8.7034375 6.345625 8.156875 5.71875 7.59375 C4.86796875 6.80484375 4.86796875 6.80484375 4 6 C3.195625 5.2575 2.39125 4.515 1.5625 3.75 C0 2 0 2 0 0 Z " fill="#322F59" transform="translate(450,451)"/>
<path d="M0 0 C0.6015625 1.8125 0.6015625 1.8125 1 4 C-1.30794896 8.26082886 -3.90773504 11.37675323 -8 14 C-8.99 13.67 -9.98 13.34 -11 13 C-10.113125 12.525625 -9.22625 12.05125 -8.3125 11.5625 C-4.02866894 8.76427306 -2.17093487 4.49556423 0 0 Z " fill="#5C43F1" transform="translate(463,549)"/>
<path d="M0 0 C0 4.13781054 -1.71509607 5.20919996 -4.5 8.1875 C-5.3353125 9.08855469 -6.170625 9.98960937 -7.03125 10.91796875 C-8.00578125 11.94857422 -8.00578125 11.94857422 -9 13 C-9.99 12.67 -10.98 12.34 -12 12 C-8.04 8.04 -4.08 4.08 0 0 Z " fill="#3C3C5D" transform="translate(640,477)"/>
<path d="M0 0 C4.79833434 3.87557774 9.42907477 7.92483886 13 13 C13 13.66 13 14.32 13 15 C12.01 15 11.02 15 10 15 C9.46375 13.96875 8.9275 12.9375 8.375 11.875 C6.78879221 9.06204878 5.07859399 6.92228807 2.75 4.6875 C1.8425 3.800625 0.935 2.91375 0 2 C0 1.34 0 0.68 0 0 Z " fill="#5943E7" transform="translate(238,569)"/>
<path d="M0 0 C0.66 0 1.32 0 2 0 C1.67 1.32 1.34 2.64 1 4 C0.34 4 -0.32 4 -1 4 C-1 4.66 -1 5.32 -1 6 C-1.99 6.33 -2.98 6.66 -4 7 C-4 5.68 -4 4.36 -4 3 C-5.98 3 -7.96 3 -10 3 C-10 2.67 -10 2.34 -10 2 C-3.375 0.875 -3.375 0.875 0 2 C0 1.34 0 0.68 0 0 Z " fill="#6750E9" transform="translate(517,352)"/>
<path d="M0 0 C0 3.6987636 -0.84352062 4.35773852 -3.25 7.0625 C-4.15492188 8.10083984 -4.15492188 8.10083984 -5.078125 9.16015625 C-6.97018869 10.97146113 -8.60605599 11.9778071 -11 13 C-7.61227103 8.30840284 -4.21814817 3.9700218 0 0 Z " fill="#313251" transform="translate(189,535)"/>
<path d="M0 0 C0 4.13781054 -1.71509607 5.20919996 -4.5 8.1875 C-5.3353125 9.08855469 -6.170625 9.98960937 -7.03125 10.91796875 C-7.6809375 11.60503906 -8.330625 12.29210937 -9 13 C-9 8.86218946 -7.28490393 7.79080004 -4.5 4.8125 C-3.6646875 3.91144531 -2.829375 3.01039063 -1.96875 2.08203125 C-0.99421875 1.05142578 -0.99421875 1.05142578 0 0 Z " fill="#343554" transform="translate(172,536)"/>
<path d="M0 0 C3.45281166 1.15093722 4.38082163 2.3205993 6.6875 5.0625 C7.31011719 5.79597656 7.93273437 6.52945313 8.57421875 7.28515625 C9.04472656 7.85105469 9.51523438 8.41695312 10 9 C9.67 9.66 9.34 10.32 9 11 C7.49403892 9.54782324 5.99537896 8.08807139 4.5 6.625 C3.6646875 5.81289063 2.829375 5.00078125 1.96875 4.1640625 C0 2 0 2 0 0 Z " fill="#5B44E9" transform="translate(221,550)"/>
<path d="M0 0 C0 3.74016583 -0.9341591 4.45276193 -3.375 7.1875 C-4.00148438 7.90292969 -4.62796875 8.61835937 -5.2734375 9.35546875 C-7 11 -7 11 -9 11 C-7.59155282 7.78475695 -5.89655214 5.67816132 -3.375 3.25 C-2.74335937 2.63640625 -2.11171875 2.0228125 -1.4609375 1.390625 C-0.73777344 0.70226562 -0.73777344 0.70226562 0 0 Z " fill="#2A2A44" transform="translate(660,519)"/>
<path d="M0 0 C-1.47692308 4.67692308 -1.47692308 4.67692308 -4.125 6.3125 C-5.053125 6.6528125 -5.053125 6.6528125 -6 7 C-6 4 -6 4 -4.125 1.8125 C-2 0 -2 0 0 0 Z " fill="#3A3E63" transform="translate(838,558)"/>
<path d="M0 0 C1.13199353 0.9080162 2.25532363 1.82683826 3.375 2.75 C4.00148438 3.26046875 4.62796875 3.7709375 5.2734375 4.296875 C7.08312318 6.08199481 8.00117455 7.67949644 9 10 C5.02743602 7.90336901 2.56101511 5.69924405 0 2 C0 1.34 0 0.68 0 0 Z " fill="#292A43" transform="translate(575,587)"/>
<path d="M0 0 C0.99 0.66 1.98 1.32 3 2 C3 2.66 3 3.32 3 4 C-1.29 4 -5.58 4 -10 4 C-10 3.67 -10 3.34 -10 3 C-9.36191406 2.95101562 -8.72382813 2.90203125 -8.06640625 2.8515625 C-7.24011719 2.77679687 -6.41382813 2.70203125 -5.5625 2.625 C-4.73878906 2.55539062 -3.91507813 2.48578125 -3.06640625 2.4140625 C-2.38449219 2.27742187 -1.70257813 2.14078125 -1 2 C-0.67 1.34 -0.34 0.68 0 0 Z " fill="#8468FE" transform="translate(245,579)"/>
<path d="M0 0 C0.33 0.99 0.66 1.98 1 3 C-1.31 4.98 -3.62 6.96 -6 9 C-4.25618453 5.51236907 -2.47193291 2.96631949 0 0 Z " fill="#343555" transform="translate(187,518)"/>
<path d="M0 0 C0.33 0.66 0.66 1.32 1 2 C0.34 1.67 -0.32 1.34 -1 1 C-0.67 0.67 -0.34 0.34 0 0 Z " fill="#6A639F" transform="translate(537,556)"/>
<path d="M0 0 C3 1 3 1 3 1 Z " fill="#856AF9" transform="translate(325,500)"/>
<path d="M0 0 C0.66 0.66 1.32 1.32 2 2 C1.34 2 0.68 2 0 2 C0 1.34 0 0.68 0 0 Z " fill="#6C5FB7" transform="translate(465,468)"/>
<path d="" fill="#666193" transform="translate(0,0)"/>
<path d="" fill="#646488" transform="translate(0,0)"/>
<path d="" fill="#856EE9" transform="translate(0,0)"/>
<path d="M0 0 C2 1 2 1 2 1 Z " fill="#856AFD" transform="translate(416,501)"/>
<path d="" fill="#60608C" transform="translate(0,0)"/>
<path d="" fill="#866AFE" transform="translate(0,0)"/>
<path d="" fill="#585858" transform="translate(0,0)"/>
<path d="" fill="#826BF4" transform="translate(0,0)"/>
<path d="" fill="#65618B" transform="translate(0,0)"/>
<path d="" fill="#63618D" transform="translate(0,0)"/>
<path d="" fill="#836BE4" transform="translate(0,0)"/>
<path d="" fill="#826BE8" transform="translate(0,0)"/>
<path d="" fill="#63608B" transform="translate(0,0)"/>
<path d="" fill="#63618E" transform="translate(0,0)"/>
<path d="" fill="#666494" transform="translate(0,0)"/>
<path d="" fill="#61608B" transform="translate(0,0)"/>
<path d="" fill="#5D5D86" transform="translate(0,0)"/>
<path d="" fill="#605F8A" transform="translate(0,0)"/>
<path d="" fill="#666195" transform="translate(0,0)"/>
<path d="" fill="#605F89" transform="translate(0,0)"/>
<path d="" fill="#67629B" transform="translate(0,0)"/>
<path d="" fill="#856CF6" transform="translate(0,0)"/>
<path d="" fill="#696099" transform="translate(0,0)"/>
<path d="" fill="#846CFB" transform="translate(0,0)"/>
<path d="" fill="#68619E" transform="translate(0,0)"/>
<path d="" fill="#6B65A2" transform="translate(0,0)"/>
<path d="" fill="#826DEB" transform="translate(0,0)"/>
<path d="" fill="#6963A3" transform="translate(0,0)"/>
<path d="" fill="#7564D1" transform="translate(0,0)"/>
<path d="" fill="#5D6084" transform="translate(0,0)"/>
<path d="" fill="#6A63A4" transform="translate(0,0)"/>
<path d="" fill="#6961A0" transform="translate(0,0)"/>
<path d="" fill="#6963A1" transform="translate(0,0)"/>
<path d="" fill="#816AEB" transform="translate(0,0)"/>
<path d="" fill="#6A62A4" transform="translate(0,0)"/>
<path d="" fill="#7F6BD6" transform="translate(0,0)"/>
<path d="" fill="#5F608E" transform="translate(0,0)"/>
<path d="" fill="#615F8E" transform="translate(0,0)"/>
<path d="" fill="#656393" transform="translate(0,0)"/>
<path d="" fill="#69689F" transform="translate(0,0)"/>
<path d="" fill="#7262B6" transform="translate(0,0)"/>
<path d="" fill="#646194" transform="translate(0,0)"/>
<path d="" fill="#616086" transform="translate(0,0)"/>
<path d="" fill="#7D69E4" transform="translate(0,0)"/>
<path d="" fill="#616086" transform="translate(0,0)"/>
<path d="" fill="#806CE7" transform="translate(0,0)"/>
<path d="" fill="#7663CF" transform="translate(0,0)"/>
<path d="" fill="#6D67AB" transform="translate(0,0)"/>
<path d="" fill="#615E8B" transform="translate(0,0)"/>
<path d="" fill="#5A5B86" transform="translate(0,0)"/>
<path d="" fill="#7365BF" transform="translate(0,0)"/>
<path d="" fill="#806CC8" transform="translate(0,0)"/>
<path d="" fill="#836DDF" transform="translate(0,0)"/>
<path d="" fill="#7A66D9" transform="translate(0,0)"/>
<path d="" fill="#6E63B4" transform="translate(0,0)"/>
<path d="" fill="#6D6A9D" transform="translate(0,0)"/>
<path d="" fill="#71709F" transform="translate(0,0)"/>
<path d="" fill="#7C70B9" transform="translate(0,0)"/>
<path d="" fill="#7270A1" transform="translate(0,0)"/>
<path d="" fill="#7D6FBC" transform="translate(0,0)"/>
<path d="" fill="#5D5E8E" transform="translate(0,0)"/>
<path d="" fill="#5D5D88" transform="translate(0,0)"/>
<path d="" fill="#6D6E9D" transform="translate(0,0)"/>
<path d="" fill="#606190" transform="translate(0,0)"/>
<path d="" fill="#6C61B6" transform="translate(0,0)"/>
<path d="" fill="#866DFE" transform="translate(0,0)"/>
<path d="" fill="#605F86" transform="translate(0,0)"/>
<path d="" fill="#5D5E8D" transform="translate(0,0)"/>
<path d="" fill="#6E62B8" transform="translate(0,0)"/>
<path d="" fill="#896FFA" transform="translate(0,0)"/>
<path d="" fill="#8A6FFB" transform="translate(0,0)"/>
<path d="" fill="#7A66E1" transform="translate(0,0)"/>
<path d="" fill="#6F62BC" transform="translate(0,0)"/>
<path d="" fill="#866BF9" transform="translate(0,0)"/>
<path d="" fill="#7063B9" transform="translate(0,0)"/>
<path d="" fill="#7962E5" transform="translate(0,0)"/>
<path d="" fill="#60608B" transform="translate(0,0)"/>
<path d="" fill="#7061C0" transform="translate(0,0)"/>
<path d="" fill="#7B65DE" transform="translate(0,0)"/>
<path d="" fill="#6D5FBB" transform="translate(0,0)"/>
<path d="" fill="#6D64BC" transform="translate(0,0)"/>
<path d="" fill="#7163C4" transform="translate(0,0)"/>
<path d="" fill="#646292" transform="translate(0,0)"/>
<path d="" fill="#7160BE" transform="translate(0,0)"/>
<path d="" fill="#7964DD" transform="translate(0,0)"/>
<path d="" fill="#605E8A" transform="translate(0,0)"/>
<path d="" fill="#7861E2" transform="translate(0,0)"/>
<path d="" fill="#63638A" transform="translate(0,0)"/>
<path d="" fill="#8A71F5" transform="translate(0,0)"/>
<path d="" fill="#8870F8" transform="translate(0,0)"/>
<path d="" fill="#876EFA" transform="translate(0,0)"/>
<path d="" fill="#6F5FC1" transform="translate(0,0)"/>
<path d="" fill="#615F8E" transform="translate(0,0)"/>
<path d="" fill="#5F5F8B" transform="translate(0,0)"/>
<path d="" fill="#626190" transform="translate(0,0)"/>
<path d="" fill="#856EF9" transform="translate(0,0)"/>
<path d="" fill="#646190" transform="translate(0,0)"/>
<path d="" fill="#826AED" transform="translate(0,0)"/>
<path d="" fill="#6F63B6" transform="translate(0,0)"/>
<path d="" fill="#7869C8" transform="translate(0,0)"/>
<path d="" fill="#846DF8" transform="translate(0,0)"/>
<path d="" fill="#866EF9" transform="translate(0,0)"/>
<path d="" fill="#7968C3" transform="translate(0,0)"/>
<path d="" fill="#7F67E5" transform="translate(0,0)"/>
<path d="" fill="#606089" transform="translate(0,0)"/>
<path d="" fill="#846CF3" transform="translate(0,0)"/>
<path d="" fill="#846FE8" transform="translate(0,0)"/>
<path d="" fill="#856FF4" transform="translate(0,0)"/>
<path d="" fill="#826BF3" transform="translate(0,0)"/>
</svg>
